HIERARCHY
ROOT hip
{
	OFFSET 0.000000 0.000000 0.000000 
	CHANNELS 6 Xposition Yposition Zposition Xrotation Zrotation Yrotation
	JOINT abdomen
	{
		OFFSET 0.000000 3.402643 0.000000 
		CHANNELS 3 Xrotation Zrotation Yrotation
		JOINT chest
		{
			OFFSET 0.000000 8.438565 -0.680529 
			CHANNELS 3 Xrotation Zrotation Yrotation
			JOINT neck
			{
				OFFSET 0.000000 10.207942 -0.272212 
				CHANNELS 3 Xrotation Zrotation Yrotation
				JOINT head
				{
					OFFSET 0.000000 3.130431 0.000000 
					CHANNELS 3 Xrotation Zrotation Yrotation
					End Site
					{
						OFFSET 0.000000 3.130435 0.000000 
					}
				}
			}
			JOINT lCollar
			{
				OFFSET 3.470700 6.669187 -0.816635 
				CHANNELS 3 Yrotation Zrotation Xrotation
				JOINT lShldr
				{
					OFFSET 3.198488 0.000000 0.000000 
					CHANNELS 3 Zrotation Yrotation Xrotation
					JOINT lForeArm
					{
						OFFSET 10.139888 0.000000 0.000000 
						CHANNELS 3 Yrotation Zrotation Xrotation
						JOINT lHand
						{
							OFFSET 8.370511 0.000000 0.000000 
							CHANNELS 3 Zrotation Yrotation Xrotation
							End Site
							{
								OFFSET 4.083176 0.000000 0.000000 
							}
						}
					}
				}
			}
			JOINT rCollar
			{
				OFFSET -3.470700 6.669187 -0.816635 
				CHANNELS 3 Yrotation Zrotation Xrotation
				JOINT rShldr
				{
					OFFSET -3.198488 0.000000 0.000000 
					CHANNELS 3 Zrotation Yrotation Xrotation
					JOINT rForeArm
					{
						OFFSET -10.139888 0.000000 0.000000 
						CHANNELS 3 Yrotation Zrotation Xrotation
						JOINT rHand
						{
							OFFSET -8.370511 0.000000 0.000000 
							CHANNELS 3 Zrotation Yrotation Xrotation
							End Site
							{
								OFFSET -4.083176 0.000000 0.000000 
							}
						}
					}
				}
			}
		}
	}
	JOINT lThigh
	{
		OFFSET 5.308129 -1.633274 1.361059 
		CHANNELS 3 Xrotation Zrotation Yrotation
		JOINT lShin
		{
			OFFSET -2.041588 -20.007561 0.000000 
			CHANNELS 3 Xrotation Zrotation Yrotation
			JOINT lFoot
			{
				OFFSET 0.000000 -19.190928 -1.224953 
				CHANNELS 3 Xrotation Yrotation Zrotation
				End Site
				{
					OFFSET 0.000000 -2.449906 4.627600 
				}
			}
		}
	}
	JOINT rThigh
	{
		OFFSET -5.308129 -1.633274 1.361059 
		CHANNELS 3 Xrotation Zrotation Yrotation
		JOINT rShin
		{
			OFFSET 2.041588 -20.007561 0.000000 
			CHANNELS 3 Xrotation Zrotation Yrotation
			JOINT rFoot
			{
				OFFSET 0.000000 -19.190928 -1.224953 
				CHANNELS 3 Xrotation Yrotation Zrotation
				End Site
				{
					OFFSET 0.000000 -2.449906 4.627600 
				}
			}
		}
	}
}
MOTION
Frames: 14
Frame Time: 0.033333
-11.538029 47.379047 -91.784615 -17.812500 -2.832031 -2.002435 31.591906 -0.427191 -3.417056 -12.885833 12.014990 -3.125803 -0.060371 -3.085866 5.160954 12.216113 -3.591577 4.977293 -4.874359 -14.339723 -0.003688 -62.162617 -8.293711 26.241125 -28.072330 2.046745 22.692036 -11.578815 -4.238138 0.863097 -2.028624 6.312575 -0.001028 62.066269 -2.743522 14.817129 26.363588 -1.403452 14.833952 17.205521 2.230696 0.681665 9.972434 5.310938 15.709414 31.238468 -1.102962 -2.588773 -19.746704 -7.219785 -15.016676 -11.221574 -2.343116 5.256558 29.050116 1.171754 2.455953 -3.450007 -15.053684 10.936761 
-11.563758 47.262177 -90.743088 -17.470703 -2.382813 -1.494141 31.270348 -0.392403 -3.559677 -12.708954 12.160855 -3.250065 -0.798199 -3.260215 5.073075 12.489771 -3.689347 4.835837 -4.690124 -14.149186 -0.008115 -63.125729 -8.512455 26.438160 -27.654970 2.055322 22.816311 -11.606811 -4.200605 0.853470 -1.845164 6.028544 -0.001450 62.240257 -2.910534 16.323456 26.411390 -1.462869 15.518353 17.475012 3.050927 0.952035 10.740645 4.980087 15.106650 31.521729 -1.088134 -2.608974 -20.613455 -7.205270 -15.136609 -12.130127 -2.684278 3.435546 25.050306 1.323624 2.226606 -4.122427 -14.894001 10.767347 
-11.625278 47.113403 -89.661659 -17.226564 -1.826172 -0.830078 31.126114 -0.708418 -4.021272 -12.724221 13.332791 -3.599638 -1.694970 -4.097618 5.272611 13.105552 -3.953191 4.883099 -4.137959 -14.746049 -0.002137 -64.141495 -8.446707 26.600855 -27.033808 2.068207 23.009869 -11.691498 -4.384842 0.901633 -1.497681 5.148294 -0.002108 62.219955 -3.109159 18.098740 26.319948 -1.490817 15.804731 17.885485 3.274944 1.052565 11.576940 4.579726 14.287759 31.834467 -1.078646 -2.622302 -21.516310 -6.926361 -15.170026 -12.791262 -3.085368 0.688520 22.054893 1.431529 2.043432 -5.249833 -14.742822 10.498919 
-11.707613 46.949078 -88.530602 -17.011719 -1.181641 -0.136920 31.090557 -1.322974 -4.703495 -12.903264 15.276789 -4.110053 -2.848940 -5.293880 5.684954 14.014746 -4.392689 5.043083 -3.145828 -15.991397 -0.002123 -65.184761 -8.071824 26.760014 -26.225908 2.128359 23.653069 -12.027287 -4.430084 0.938637 -0.857378 3.769985 -0.002606 62.145214 -3.522093 19.874023 26.218290 -1.493104 15.875214 18.529852 2.942961 0.983362 12.479129 4.131123 13.451302 32.205471 -1.067378 -2.647830 -22.227392 -6.547326 -15.113966 -13.431836 -3.240613 -0.415110 20.458002 1.480835 1.949055 -6.089843 -16.856493 10.011175 
-11.811330 46.809223 -87.327621 -16.757813 -0.644531 0.507813 30.917189 -1.733938 -5.132085 -13.124059 16.566616 -4.442650 -3.927880 -5.852935 5.944146 14.924228 -4.949124 5.105413 -2.189546 -16.848276 -0.007634 -66.166054 -7.339814 27.481249 -25.359390 2.178398 24.301271 -12.384583 -4.540810 0.985706 -0.419003 2.724751 -0.009766 62.280956 -4.293533 21.169859 26.084496 -1.534238 16.283194 19.154909 2.302782 0.794358 13.493369 3.837831 12.642962 32.508369 -1.059526 -2.660992 -22.464260 -6.146680 -14.983461 -13.664546 -3.367760 -1.432610 19.978121 1.516812 1.871306 -6.515450 -19.021618 9.581082 
-11.948439 46.708481 -86.024353 -16.562500 -0.292969 1.376953 30.486771 -1.581243 -5.155005 -13.194770 16.010212 -4.514821 -4.615602 -4.691051 5.616335 15.589671 -5.798424 4.810633 -1.837190 -16.434317 -0.004149 -66.755478 -6.157527 28.846464 -24.654848 2.212709 24.739182 -12.701558 -4.324770 0.964749 -0.487411 3.086075 -0.003493 62.605793 -5.237906 21.717541 25.405756 -1.605740 17.193562 19.792936 2.024084 0.726553 14.712440 3.906190 11.596112 32.644966 -1.049990 -2.675024 -22.214304 -5.857882 -14.821157 -13.460062 -3.484668 -2.744513 20.781740 1.483846 1.937422 -6.333788 -20.877001 9.391050 
-12.145011 46.633930 -84.610489 -16.523438 0.136719 2.587890 29.938761 -1.351260 -4.995913 -13.465626 14.311890 -4.431051 -4.558412 -2.429936 4.667171 15.883762 -6.784574 4.112125 -2.244030 -15.324177 -0.006909 -66.831512 -4.209150 30.440531 -24.198360 2.232239 24.902042 -13.004999 -3.998531 0.915438 -0.837060 4.531764 -0.002562 62.935139 -6.719491 21.718649 24.399942 -1.681078 18.057089 20.131708 1.896496 0.688322 16.148525 4.140637 10.170004 32.733246 -1.048227 -2.669325 -20.993626 -5.806627 -14.654705 -13.230577 -3.866929 -4.345323 23.044832 1.409814 2.061654 -5.659485 -22.306559 9.447779 
-12.408134 46.602024 -83.112587 -16.757813 0.439453 3.974609 29.566336 -1.025074 -4.820025 -14.020711 12.487503 -4.373522 -3.972434 -0.053423 3.588368 15.943161 -7.800160 3.300490 -2.773668 -14.343054 -0.005551 -66.513321 -1.687996 32.392677 -23.852161 2.201571 24.600208 -13.216875 -3.556125 0.828631 -1.270893 6.368864 -0.004766 62.993401 -8.517065 21.475433 23.239025 -1.779532 19.273890 20.595774 2.045613 0.768864 17.735386 4.833151 8.578145 33.026619 -1.030706 -2.679277 -18.579845 -6.228377 -14.491930 -12.762964 -4.169750 -6.188172 25.891853 1.298482 2.264669 -4.780614 -23.040918 9.725364 
-12.692986 46.655998 -81.589417 -17.031250 0.400391 5.009829 29.164446 -0.516550 -4.552826 -14.660677 11.503139 -4.326771 -3.348898 1.049507 3.043903 16.109768 -8.102779 2.867928 -3.015565 -13.935403 -0.003654 -66.463142 1.205299 33.789227 -23.630037 2.218129 24.800179 -13.512430 -3.260465 0.779652 -1.461630 7.404904 -0.006175 62.891411 -10.201298 21.296537 22.293470 -1.885278 20.578974 21.256784 1.900883 0.737832 19.370016 5.868959 7.441953 33.456226 -1.001644 -2.712264 -15.398443 -6.745669 -14.213042 -11.888437 -4.049906 -7.755044 28.053118 1.220559 2.387410 -4.361904 -22.950329 9.893005 
-12.988473 46.793446 -80.069679 -17.373045 0.185547 5.507841 28.782742 -0.078722 -4.278135 -15.073082 11.172315 -4.245215 -2.824304 1.356390 2.929256 16.217392 -8.044105 2.787961 -2.990178 -13.768609 -0.008977 -66.654419 4.149092 34.920582 -23.449781 2.205155 24.629807 -13.577352 -3.129708 0.751006 -1.470151 7.756600 -0.005523 62.777233 -11.340463 21.437490 21.606243 -1.996097 21.878191 21.903687 1.581026 0.634587 20.817036 7.070290 6.885944 34.051872 -0.982116 -2.746389 -10.373222 -7.987794 -13.774879 -10.502636 -3.571836 -8.815987 29.470613 1.166791 2.466424 -5.132388 -22.166340 9.675847 
-13.299854 46.983955 -78.585846 -17.841799 -0.214844 5.615238 28.488937 0.290869 -3.896399 -14.925897 11.259779 -3.989045 -2.865581 1.440457 2.844777 16.364151 -7.965866 2.707322 -3.040381 -13.485813 -0.005175 -67.106209 6.658574 35.640404 -23.342438 2.187760 24.399549 -13.820879 -3.418123 0.836013 -1.605477 7.718091 -0.007518 62.641426 -11.612249 21.522169 21.490742 -2.125152 23.466131 22.928362 1.028353 0.431835 21.872587 8.466836 6.720505 35.233326 -0.941356 -2.813302 -3.951713 -9.779072 -12.982463 -8.657670 -2.732393 -9.519155 30.135689 1.137547 2.493031 -6.377542 -21.289818 9.323490 
-13.631019 47.162693 -77.160675 -18.427734 -0.527344 5.654207 28.409832 0.351386 -3.618184 -14.200320 11.491967 -3.675188 -3.612136 1.878456 2.687003 16.628538 -8.092598 2.575833 -3.180758 -12.988521 -0.008781 -67.473320 8.567771 36.539307 -23.450710 2.120097 23.538513 -14.047324 -3.762352 0.930384 -1.857756 7.514028 -0.009137 62.603233 -10.957129 21.840723 21.662277 -2.237392 24.806593 23.556543 1.193602 0.510574 22.220797 10.066777 7.154622 37.479244 -0.826547 -2.928857 3.164954 -12.530469 -11.640179 -6.618714 -1.903302 -10.118524 30.672802 1.103351 2.540812 -8.018914 -20.489756 8.859879 
-13.972016 47.287788 -75.856941 -19.033203 -0.703125 5.732421 28.682863 0.233817 -3.569317 -13.797494 11.852022 -3.559622 -4.131958 2.264672 2.627391 16.795160 -8.326823 2.543677 -3.220790 -12.715528 -0.001853 -67.637566 10.330722 37.204449 -23.761999 2.020038 22.354605 -14.644928 -3.723308 0.965647 -1.761841 7.357226 -0.007388 62.284275 -10.115200 22.434948 22.176680 -2.220779 24.706060 23.512016 1.389445 0.600310 21.450653 11.785684 7.701014 41.315487 -0.631665 -3.110478 9.529291 -14.965390 -9.890449 -4.773263 -1.258823 -10.705279 31.366335 1.083842 2.580580 -9.363029 -19.838079 8.498554 
-14.310842 47.337761 -74.677399 -19.619141 -0.957031 5.976562 29.191061 0.285722 -3.639559 -13.481915 12.456464 -3.632898 -4.516751 2.023097 2.829709 16.932077 -8.199739 2.707349 -3.029370 -12.781661 -0.002765 -67.763268 11.545232 37.629795 -23.811865 1.947964 21.457914 -14.973687 -3.868747 1.021337 -1.395232 6.974859 -0.006105 61.911472 -8.735847 22.847006 22.530476 -2.145179 23.662825 23.043936 1.813919 0.764463 19.420275 13.719732 7.959702 46.651279 -0.339877 -3.372778 14.101207 -15.731344 -8.535043 -3.112969 -0.555622 -11.427877 32.118484 1.035116 2.634790 -10.801293 -19.315247 8.110487 
